<?xml version="1.0" encoding="UTF-8" ?>
<!DOCTYPE svg PUBLIC "-//W3C//DTD SVG 1.1//EN" "http://www.w3.org/Graphics/SVG/1.1/DTD/svg11.dtd">
<svg width="512pt" height="512pt" viewBox="0 0 512 512" version="1.1" xmlns="http://www.w3.org/2000/svg">
<g id="#000000ff">
<path fill="#000000" opacity="1.00" d=" M 238.45 32.69 C 277.37 29.57 317.11 36.79 352.35 53.66 C 405.78 79.04 448.41 126.38 467.66 182.36 C 483.15 226.86 484.07 276.26 470.35 321.34 C 452.38 381.34 407.71 432.53 350.99 458.96 C 309.93 478.33 262.87 484.44 218.15 476.83 C 170.65 468.95 126.13 444.91 93.20 409.82 C 68.80 384.04 50.54 352.45 40.69 318.34 C 24.63 263.86 30.61 203.29 57.08 153.05 C 60.61 146.26 69.23 143.16 76.35 145.76 C 83.55 148.15 88.35 156.28 86.64 163.73 C 85.55 168.45 82.94 172.60 80.99 176.99 C 67.23 207.02 61.61 240.67 64.64 273.56 C 67.62 306.48 79.36 338.56 98.35 365.62 C 117.85 393.48 144.69 416.25 175.62 430.46 C 221.20 451.63 275.16 453.69 322.29 436.28 C 356.81 423.69 387.30 400.70 409.43 371.42 C 427.65 347.37 440.04 318.92 445.14 289.17 C 451.70 251.73 446.95 212.33 431.37 177.63 C 420.32 152.82 403.79 130.54 383.52 112.49 C 358.44 90.02 327.30 74.38 294.26 67.80 C 259.07 60.68 221.89 63.62 188.28 76.25 C 164.61 85.20 142.65 98.82 124.38 116.36 C 120.36 120.26 115.92 124.71 109.94 124.91 C 100.74 125.75 92.17 117.28 92.97 108.06 C 93.25 99.93 100.44 94.86 105.82 89.78 C 142.07 56.74 189.50 36.21 238.45 32.69 Z" />
<path fill="#000000" opacity="1.00" d=" M 245.19 164.20 C 251.01 158.65 261.00 158.63 266.81 164.20 C 271.05 167.82 272.22 173.63 272.06 178.95 C 271.91 197.31 272.10 215.67 271.92 234.03 C 271.90 235.94 272.04 237.85 272.24 239.76 C 293.49 240.44 314.80 239.70 336.07 240.04 C 342.72 240.01 349.07 244.43 351.13 250.79 C 353.81 258.05 350.22 266.88 343.26 270.24 C 339.48 272.14 335.12 272.04 331.00 272.07 C 316.33 271.92 301.67 272.04 287.00 271.99 C 282.08 272.00 277.14 271.68 272.24 272.24 C 272.05 274.14 271.90 276.05 271.92 277.97 C 272.08 296.67 271.95 315.38 272.04 334.08 C 272.25 339.81 270.10 345.89 265.13 349.12 C 258.45 354.05 248.18 352.40 243.28 345.73 C 238.73 339.83 240.18 331.93 239.98 325.00 C 239.83 307.42 240.38 289.81 239.76 272.24 C 237.85 272.05 235.94 271.90 234.03 271.92 C 215.33 272.08 196.62 271.95 177.92 272.04 C 172.43 272.21 166.60 270.34 163.29 265.72 C 158.25 259.45 159.16 249.50 165.18 244.20 C 168.81 240.66 174.08 239.86 178.95 239.94 C 193.96 240.04 208.98 239.99 224.00 240.00 C 229.25 239.97 234.52 240.34 239.76 239.76 C 239.95 237.85 240.09 235.94 240.08 234.03 C 239.90 215.67 240.09 197.31 239.94 178.95 C 239.78 173.63 240.94 167.81 245.19 164.20 Z" />
</g>
</svg>
