<?xml version="1.0" encoding="UTF-8" ?>
<!DOCTYPE svg PUBLIC "-//W3C//DTD SVG 1.1//EN" "http://www.w3.org/Graphics/SVG/1.1/DTD/svg11.dtd">
<svg width="225pt" height="225pt" viewBox="0 0 225 225" version="1.1" xmlns="http://www.w3.org/2000/svg">
<g id="#ffffffff">
</g>
<g id="#010101ff">
<path fill="#010101" opacity="1.00" d=" M 99.93 77.99 C 103.45 74.42 109.99 78.48 108.98 83.18 C 108.02 86.19 105.28 88.04 103.22 90.26 C 97.77 95.84 92.05 101.18 86.75 106.91 C 108.87 106.93 130.99 106.78 153.10 106.98 C 158.66 107.87 158.53 117.14 153.00 118.01 C 130.79 118.24 108.57 118.04 86.36 118.11 C 93.21 125.13 100.22 132.00 107.14 138.96 C 109.57 141.20 109.12 145.52 106.37 147.30 C 104.12 149.12 100.71 148.38 98.88 146.32 C 89.01 136.41 79.08 126.56 69.23 116.64 C 66.96 114.52 66.99 110.41 69.27 108.30 C 79.49 98.20 89.67 88.05 99.93 77.99 Z" />
</g>
</svg>
