<?xml version="1.0" encoding="UTF-8" ?>
<!DOCTYPE svg PUBLIC "-//W3C//DTD SVG 1.1//EN" "http://www.w3.org/Graphics/SVG/1.1/DTD/svg11.dtd">
<svg width="123pt" height="123pt" viewBox="0 0 123 123" version="1.1" xmlns="http://www.w3.org/2000/svg">
<g id="#fffffeff">
<path fill="#fffffe" opacity="1.00" d=" M 74.50 41.52 C 79.90 37.39 85.77 33.46 92.53 32.06 C 90.00 37.42 85.07 40.89 81.12 45.09 C 75.18 51.23 69.74 57.88 64.91 64.93 C 59.25 73.70 54.17 82.83 48.64 91.68 C 48.14 91.65 47.13 91.58 46.63 91.55 C 42.85 85.01 40.51 77.76 36.80 71.20 C 35.43 68.32 32.37 67.14 29.65 65.92 C 31.33 62.57 34.98 60.24 38.80 61.07 C 43.64 62.16 46.03 67.00 48.95 70.52 C 56.41 59.99 64.70 49.96 74.50 41.52 Z" />
</g>
<g id="#029a01ff">
<path fill="#029a01" opacity="1.00" d=" M 50.37 8.49 C 60.52 6.77 71.29 7.13 80.89 11.13 C 97.75 17.49 110.81 32.79 114.50 50.42 C 116.69 61.11 115.90 72.50 111.67 82.60 C 107.01 94.52 97.69 104.41 86.44 110.40 C 75.47 116.21 62.52 117.75 50.37 115.47 C 32.70 112.05 17.26 99.04 10.63 82.34 C 5.58 70.24 5.43 56.26 9.73 43.92 C 15.88 26.13 31.91 12.17 50.37 8.49 M 74.50 41.52 C 64.70 49.96 56.41 59.99 48.95 70.52 C 46.03 67.00 43.64 62.16 38.80 61.07 C 34.98 60.24 31.33 62.57 29.65 65.92 C 32.37 67.14 35.43 68.32 36.80 71.20 C 40.51 77.76 42.85 85.01 46.63 91.55 C 47.13 91.58 48.14 91.65 48.64 91.68 C 54.17 82.83 59.25 73.70 64.91 64.93 C 69.74 57.88 75.18 51.23 81.12 45.09 C 85.07 40.89 90.00 37.42 92.53 32.06 C 85.77 33.46 79.90 37.39 74.50 41.52 Z" />
</g>
</svg>
