<?xml version="1.0" encoding="UTF-8" ?>
<!DOCTYPE svg PUBLIC "-//W3C//DTD SVG 1.1//EN" "http://www.w3.org/Graphics/SVG/1.1/DTD/svg11.dtd">
<svg width="256pt" height="256pt" viewBox="0 0 256 256" version="1.1" xmlns="http://www.w3.org/2000/svg">
<g id="#000000ff">
<path fill="#000000" opacity="1.00" d=" M 89.29 22.37 C 90.89 19.19 94.46 17.44 97.95 17.64 C 118.27 17.69 138.60 17.59 158.92 17.69 C 163.12 17.57 167.10 20.94 167.58 25.12 C 167.90 28.51 167.69 31.92 167.72 35.32 C 182.49 35.35 197.27 35.26 212.04 35.35 C 216.29 35.28 220.26 38.83 220.58 43.09 C 220.86 46.37 220.64 49.67 220.69 52.96 C 158.90 53.00 97.10 53.00 35.31 52.96 C 35.49 48.99 34.78 44.89 35.88 41.02 C 37.09 37.71 40.43 35.31 43.97 35.36 C 58.74 35.25 73.51 35.35 88.28 35.31 C 88.56 31.03 87.45 26.40 89.29 22.37 Z" />
<path fill="#000000" opacity="1.00" d=" M 52.97 70.62 C 102.99 70.61 153.01 70.61 203.03 70.62 C 197.72 121.08 192.42 171.54 187.10 222.00 C 186.60 230.74 178.80 238.29 170.01 238.31 C 142.02 238.38 114.02 238.37 86.03 238.31 C 77.22 238.30 69.38 230.73 68.90 221.96 C 63.59 171.52 58.27 121.07 52.97 70.62 M 81.47 88.60 C 77.42 89.66 74.56 93.86 75.10 98.03 C 77.85 134.71 80.76 171.38 83.52 208.06 C 83.84 211.40 83.64 215.23 86.17 217.81 C 89.21 221.32 95.07 221.65 98.50 218.51 C 100.97 216.47 101.81 213.12 101.41 210.03 C 98.65 174.37 95.92 138.70 93.17 103.03 C 92.89 100.00 92.97 96.89 92.12 93.94 C 90.67 89.73 85.71 87.29 81.47 88.60 M 125.43 88.65 C 121.46 89.78 118.85 93.86 119.17 97.93 C 119.16 134.28 119.20 170.64 119.15 206.99 C 119.21 210.57 118.63 214.73 121.30 217.60 C 124.56 221.67 131.41 221.68 134.69 217.62 C 137.37 214.74 136.79 210.57 136.85 206.97 C 136.81 171.99 136.82 137.00 136.84 102.02 C 136.75 98.81 137.32 95.29 135.50 92.44 C 133.49 89.10 129.14 87.47 125.43 88.65 M 169.45 88.65 C 165.83 89.70 163.36 93.24 163.29 96.96 C 160.39 134.99 157.40 173.01 154.55 211.04 C 154.02 215.33 157.15 219.59 161.36 220.47 C 166.62 221.84 172.21 217.40 172.14 211.98 C 175.08 174.34 177.92 136.69 180.85 99.06 C 182.33 92.66 175.70 86.46 169.45 88.65 Z" />
</g>
</svg>
