<?xml version="1.0" encoding="UTF-8" ?>
<!DOCTYPE svg PUBLIC "-//W3C//DTD SVG 1.1//EN" "http://www.w3.org/Graphics/SVG/1.1/DTD/svg11.dtd">
<svg width="123pt" height="123pt" viewBox="0 0 123 123" version="1.1" xmlns="http://www.w3.org/2000/svg">
<g id="#ffffffff">
<path fill="#ffffff" opacity="1.00" d=" M 37.40 34.67 C 37.36 33.34 36.23 31.10 37.94 30.44 C 41.80 33.81 44.47 38.27 47.99 41.97 C 51.19 45.32 53.75 49.55 57.90 51.82 C 61.57 49.61 64.71 46.63 68.40 44.45 C 74.12 40.68 80.49 38.05 87.00 36.04 C 88.87 35.47 90.82 35.19 92.78 35.27 C 93.40 36.67 92.45 37.61 91.35 38.31 C 82.18 44.66 72.95 51.12 65.12 59.10 C 67.44 62.35 70.99 64.41 73.98 66.99 C 81.12 72.89 88.81 78.16 95.71 84.33 C 95.75 84.68 95.81 85.40 95.84 85.76 C 90.85 89.46 83.34 90.77 78.04 86.94 C 70.90 81.82 65.60 74.67 59.64 68.31 C 58.96 67.58 58.21 66.91 57.31 66.46 C 51.47 72.90 45.54 79.27 39.80 85.80 C 38.30 87.45 36.84 89.18 34.97 90.43 C 33.07 90.18 32.46 87.84 31.82 86.31 C 30.86 82.28 30.58 77.59 32.97 73.98 C 37.30 67.38 44.53 63.61 49.94 58.07 C 44.73 50.90 39.91 43.24 37.40 34.67 Z" />
</g>
<g id="#ce0102ff">
<path fill="#ce0102" opacity="1.00" d=" M 53.34 8.17 C 66.28 6.15 80.02 8.77 91.00 15.99 C 104.01 24.02 113.19 37.89 115.65 52.96 C 116.91 62.58 116.44 72.66 112.69 81.71 C 107.34 95.50 96.16 106.93 82.43 112.47 C 67.61 118.58 50.09 117.61 35.99 109.99 C 20.70 101.98 9.83 86.14 7.80 69.00 C 6.98 60.47 7.46 51.66 10.49 43.57 C 16.90 25.12 33.97 10.93 53.34 8.17 M 37.40 34.67 C 39.91 43.24 44.73 50.90 49.94 58.07 C 44.53 63.61 37.30 67.38 32.97 73.98 C 30.58 77.59 30.86 82.28 31.82 86.31 C 32.46 87.84 33.07 90.18 34.97 90.43 C 36.84 89.18 38.30 87.45 39.80 85.80 C 45.54 79.27 51.47 72.90 57.31 66.46 C 58.21 66.91 58.96 67.58 59.64 68.31 C 65.60 74.67 70.90 81.82 78.04 86.94 C 83.34 90.77 90.85 89.46 95.84 85.76 C 95.81 85.40 95.75 84.68 95.71 84.33 C 88.81 78.16 81.12 72.89 73.98 66.99 C 70.99 64.41 67.44 62.35 65.12 59.10 C 72.95 51.12 82.18 44.66 91.35 38.31 C 92.45 37.61 93.40 36.67 92.78 35.27 C 90.82 35.19 88.87 35.47 87.00 36.04 C 80.49 38.05 74.12 40.68 68.40 44.45 C 64.71 46.63 61.57 49.61 57.90 51.82 C 53.75 49.55 51.19 45.32 47.99 41.97 C 44.47 38.27 41.80 33.81 37.94 30.44 C 36.23 31.10 37.36 33.34 37.40 34.67 Z" />
</g>
</svg>
