<?xml version="1.0" encoding="UTF-8" ?>
<!DOCTYPE svg PUBLIC "-//W3C//DTD SVG 1.1//EN" "http://www.w3.org/Graphics/SVG/1.1/DTD/svg11.dtd">
<svg width="715pt" height="715pt" viewBox="0 0 715 715" version="1.1" xmlns="http://www.w3.org/2000/svg">
<g id="#000000ff">
<path fill="#000000" opacity="1.00" d=" M 314.63 154.65 C 324.88 152.04 335.35 149.58 346.00 149.97 C 355.28 150.21 364.65 149.34 373.83 151.11 C 383.05 152.83 392.50 154.04 401.17 157.81 C 422.77 165.99 443.00 179.92 455.05 199.99 C 463.60 213.46 469.79 228.88 470.21 244.99 C 471.06 251.42 471.55 257.98 470.48 264.42 C 468.17 284.18 460.30 303.31 447.81 318.81 C 435.41 334.63 419.83 347.47 406.27 362.21 C 399.19 370.67 393.23 380.51 391.62 391.60 C 390.60 399.65 390.01 407.75 389.85 415.87 C 365.96 416.10 342.03 416.09 318.13 415.87 C 317.58 404.35 318.20 392.81 319.37 381.35 C 321.59 368.61 325.92 356.05 333.38 345.39 C 338.85 336.46 346.24 328.96 353.73 321.73 C 363.34 311.64 375.13 303.81 384.02 293.00 C 387.51 288.80 391.59 285.02 394.20 280.15 C 399.11 271.08 401.55 260.26 398.97 250.08 C 396.06 234.92 383.99 221.58 368.77 218.19 C 362.95 216.82 356.98 215.55 350.97 216.02 C 342.59 216.64 334.50 219.40 326.99 223.06 C 313.55 231.01 303.47 244.31 299.37 259.37 C 298.94 260.34 298.83 262.81 297.15 261.93 C 290.68 259.53 284.60 256.19 278.07 253.94 C 272.05 251.88 266.63 248.42 260.63 246.30 C 255.35 244.38 250.07 242.46 245.02 239.99 C 241.79 238.33 238.10 237.74 235.04 235.76 C 236.21 229.41 239.75 223.84 241.71 217.73 C 253.72 194.06 272.70 173.28 296.98 161.97 C 302.66 159.08 308.42 156.22 314.63 154.65 Z" />
<path fill="#000000" opacity="1.00" d=" M 134.22 293.20 C 139.58 291.20 145.33 290.70 150.98 290.13 C 159.90 289.72 169.02 289.64 177.65 292.28 C 188.13 295.79 198.49 300.68 206.29 308.71 C 219.58 321.27 226.91 339.64 226.76 357.85 C 225.82 367.17 223.92 376.44 220.09 385.04 C 215.27 399.22 205.44 411.72 203.94 426.94 C 203.18 435.28 207.18 442.90 208.93 450.83 C 205.29 452.87 201.11 453.61 197.31 455.30 C 190.34 458.30 183.18 460.82 175.91 463.00 C 172.24 464.02 169.01 466.35 165.22 466.92 C 163.44 464.66 162.72 461.81 161.78 459.15 C 159.35 451.65 156.87 443.98 156.95 436.01 C 156.96 431.05 156.62 425.97 158.11 421.17 C 162.33 404.35 172.55 390.01 179.14 374.14 C 181.43 368.44 181.44 362.12 180.91 356.09 C 178.76 346.81 172.24 337.69 162.55 335.41 C 146.89 330.29 129.26 339.86 122.14 354.08 C 118.55 361.07 117.38 369.17 118.39 376.93 C 110.55 377.89 102.83 375.56 95.00 375.99 C 87.68 376.38 80.44 375.05 73.14 374.80 C 72.71 369.55 72.75 364.19 73.97 359.05 C 75.09 354.42 75.31 349.57 77.11 345.13 C 80.69 336.24 84.49 327.17 91.13 320.09 C 96.79 312.67 104.02 306.58 112.30 302.27 C 118.99 297.88 126.78 295.90 134.22 293.20 Z" />
<path fill="#000000" opacity="1.00" d=" M 534.49 292.54 C 544.69 290.13 555.34 289.32 565.78 290.34 C 585.22 293.92 604.60 302.05 618.29 316.71 C 623.80 322.12 628.17 328.61 631.39 335.61 C 635.71 343.77 636.70 353.10 637.83 362.11 C 638.34 366.35 637.41 370.57 636.68 374.72 C 634.03 388.45 627.58 401.69 617.22 411.23 C 610.73 416.54 604.08 421.88 596.34 425.27 C 588.31 428.92 580.40 432.81 572.36 436.41 C 564.43 440.68 557.08 446.78 553.11 455.03 C 551.04 458.89 550.31 463.39 547.74 466.99 C 543.36 466.22 539.35 464.17 535.17 462.77 C 524.83 458.72 513.89 455.96 504.01 450.86 C 506.00 442.39 509.72 434.43 513.90 426.84 C 516.45 422.25 520.64 418.96 524.21 415.21 C 530.97 407.98 540.40 404.28 549.14 400.07 C 558.61 396.55 568.10 392.91 576.84 387.76 C 584.58 382.77 589.89 374.06 591.03 364.96 C 590.78 356.06 586.98 346.69 579.52 341.43 C 573.72 337.51 567.01 334.50 559.97 334.00 C 552.82 334.05 545.73 336.11 539.41 339.40 C 533.89 342.35 530.22 347.59 526.01 352.03 C 518.20 346.26 511.74 338.93 504.33 332.69 C 500.78 328.92 496.26 326.15 493.09 322.03 C 496.39 315.98 501.91 311.54 507.09 307.14 C 514.85 300.10 524.69 295.90 534.49 292.54 Z" />
<path fill="#000000" opacity="1.00" d=" M 344.34 456.36 C 354.50 455.57 365.52 455.04 374.68 460.33 C 379.34 463.18 384.24 465.89 388.01 469.91 C 393.62 476.49 398.90 483.85 400.36 492.59 C 402.32 505.32 401.16 519.43 392.93 529.91 C 388.40 537.71 380.64 542.66 373.01 547.02 C 357.54 553.91 338.02 552.06 324.87 541.10 C 319.33 537.29 315.12 531.92 311.94 526.06 C 306.96 518.02 305.80 508.24 306.29 498.97 C 307.32 478.39 324.11 459.80 344.34 456.36 Z" />
<path fill="#000000" opacity="1.00" d=" M 200.37 482.39 C 208.43 481.05 217.24 482.05 223.97 486.99 C 229.75 491.38 234.56 497.46 236.43 504.56 C 237.68 511.80 237.57 519.58 234.23 526.29 C 230.22 535.75 220.76 542.13 210.79 543.75 C 201.39 545.26 191.56 541.86 184.77 535.27 C 178.71 529.89 175.94 521.83 175.02 513.99 C 173.78 499.10 185.21 483.95 200.37 482.39 Z" />
<path fill="#000000" opacity="1.00" d=" M 499.38 482.42 C 506.76 481.27 514.80 481.57 521.34 485.58 C 526.58 488.90 531.21 493.42 534.03 499.00 C 539.42 509.80 537.47 523.70 529.92 532.98 C 522.46 540.97 510.91 546.36 499.94 543.17 C 485.36 541.02 473.90 526.65 474.90 511.97 C 474.78 497.97 485.44 484.69 499.38 482.42 Z" />
</g>
</svg>
